<svg width="22" height="24" viewBox="0 0 22 24" fill="none" xmlns="http://www.w3.org/2000/svg">
<path d="M8.21295 3.33044L4.81479 7.49997H0.916667C0.410208 7.49997 0 8.00341 0 8.62497V15.375C0 15.9961 0.410208 16.5 0.916667 16.5H4.81479L8.21295 20.6695C8.78701 21.374 9.77778 20.879 9.77778 19.874V4.12591C9.77778 3.11997 8.78625 2.62685 8.21295 3.33044ZM17.1245 0.936067C16.6978 0.592473 16.1245 0.737317 15.8446 1.26185C15.5642 1.78544 15.6834 2.48904 16.11 2.83263C18.6412 4.87122 20.1518 8.29826 20.1518 12.0004C20.1518 15.7026 18.6412 19.1297 16.11 21.1683C15.6834 21.5114 15.5642 22.2154 15.8446 22.7386C16.1135 23.2406 16.6822 23.4211 17.1245 23.0644C20.177 20.6053 22 16.4686 22 12C22 7.53138 20.177 3.39513 17.1245 0.936067ZM18.3333 12C18.3333 9.02201 17.1088 6.28404 15.0574 4.67622C14.63 4.34154 14.0632 4.49716 13.7924 5.02591C13.5216 5.55466 13.648 6.25451 14.0754 6.58966C15.5936 7.77982 16.5 9.80201 16.5 12C16.5 14.1979 15.5936 16.2201 14.0754 17.4103C13.648 17.745 13.5216 18.4448 13.7924 18.974C14.041 19.4597 14.5991 19.6837 15.0574 19.3237C17.1088 17.7159 18.3333 14.9784 18.3333 12ZM12.9185 8.39669C12.4762 8.09997 11.9182 8.29544 11.673 8.83966C11.4289 9.38388 11.5905 10.0678 12.0339 10.3683C12.527 10.7006 12.8333 11.3264 12.8333 12C12.8333 12.674 12.527 13.2994 12.0343 13.6317C11.5909 13.9322 11.4293 14.6161 11.6734 15.1603C11.919 15.7069 12.4774 15.9009 12.9189 15.6033C13.9971 14.8744 14.667 13.4939 14.667 11.9995C14.667 10.5051 13.9971 9.12513 12.9185 8.39669Z" fill="white"/>
</svg>
